<svg version="1.1" preserveAspectRatio="none" xmlns="http://www.w3.org/2000/svg" width="500" height="500" viewBox="0 0 500 500"><rect width="100%" height="100%" fill="#FFFFFF" fill-opacity="1"/><svg viewBox="-48.4781 132.8486 539.9331 100" width="333" height="61.67430742808693" x="83.5px" y="219.1628px" xmlns="http://www.w3.org/2000/svg" xmlns:xlink="http://www.w3.org/1999/xlink" preserveAspectRatio="none"><defs></defs><style>.background {fill:#FFFFFF;fill-opacity:1;}.companyName {fill:#0C0C0C;fill-opacity:1;}.icon3 {fill:#6F5CF3;fill-opacity:1;}.icon3-str {stroke:#6F5CF3;stroke-opacity:1;}.shape {fill:#F55649;fill-opacity:1;}.text-str {stroke:#0C0C0C;stroke-opacity:1;}</style><g opacity="1" transform="rotate(0 54.5218 132.8486)">
<svg width="436.9332" height="100" x="54.5218" y="132.8486" version="1.1" preserveAspectRatio="none" viewBox="0 0 436.9332 100">
  <defs><rect x="0" y="0" width="436.9332" height="100" rx="0px" ry="0px" id="id-B7crM0kCi1708598505119"></rect></defs><use class="companyName text-str" style="stroke-width:0;" xlink:href="#id-B7crM0kCi1708598505119"></use>
</svg>
</g><g opacity="1" transform="rotate(0 84.5218 162.8486)">
<svg width="376.9332" height="40" x="84.5218" y="162.8486" version="1.1" preserveAspectRatio="none" viewBox="4.2969 -32.3242 402.1484 42.675799999999995">
  <g transform="matrix(1 0 0 1 0 0)" class="background"><path id="id-D6z1nYkh13" d="M4.30 0L4.30-30.53L10.49-30.53L29.51-20.57L29.51-30.53L35.70-30.53L35.70 0L29.51 0L29.51-14.00L10.49-23.91L10.49 0L4.30 0Z M42.52-7.27L42.52-7.27Q42.52-8.93 43.24-10.29Q43.96-11.66 45.41-12.65Q46.86-13.63 49.01-14.17Q51.17-14.71 54.04-14.71L54.04-14.71Q56.17-14.71 58.53-14.39Q60.88-14.08 63.38-13.44L63.38-13.44Q63.28-14.53 62.71-15.46Q62.15-16.39 61.14-17.06Q60.14-17.73 58.72-18.11Q57.30-18.48 55.51-18.48L55.51-18.48Q54.53-18.48 53.36-18.36Q52.19-18.24 50.94-18.01Q49.69-17.77 48.47-17.42Q47.25-17.07 46.19-16.58L46.19-16.58L44.43-21.33Q45.74-21.80 47.24-22.19Q48.73-22.58 50.29-22.86Q51.86-23.14 53.42-23.30Q54.98-23.46 56.45-23.46L56.45-23.46Q62.91-23.46 66.05-20.16Q69.20-16.86 69.20-10.04L69.20-10.04L69.20 0L63.42 0L63.42-2.17Q62.52-1.64 61.46-1.17Q60.39-0.70 59.14-0.35Q57.89 0 56.46 0.21Q55.02 0.41 53.42 0.41L53.42 0.41Q50.72 0.41 48.68-0.18Q46.64-0.76 45.27-1.80Q43.91-2.83 43.21-4.23Q42.52-5.63 42.52-7.27ZM48.61-7.46L48.61-7.46Q48.61-6.89 48.91-6.38Q49.20-5.86 49.84-5.46Q50.49-5.06 51.49-4.81Q52.50-4.57 53.93-4.57L53.93-4.57Q55.45-4.57 56.88-4.84Q58.30-5.12 59.53-5.57Q60.76-6.02 61.76-6.60Q62.75-7.19 63.42-7.81L63.42-7.81L63.42-8.83Q62.09-9.20 60.79-9.45Q59.49-9.71 58.31-9.85Q57.13-10 56.08-10.06Q55.04-10.12 54.26-10.12L54.26-10.12Q52.64-10.12 51.56-9.90Q50.49-9.69 49.82-9.33Q49.16-8.96 48.89-8.48Q48.61-7.99 48.61-7.46Z M76.84 0L76.84-23.05L82.62-23.05L82.62-21.09Q84.92-22.40 87.02-22.93Q89.12-23.46 91.13-23.46L91.13-23.46Q93.77-23.46 96.02-22.69Q98.26-21.91 99.90-20.39Q101.54-18.87 102.47-16.59Q103.40-14.32 103.40-11.33L103.40-11.33L103.40 0L97.64 0L97.64-10.39Q97.64-12.29 97.10-13.78Q96.56-15.27 95.56-16.30Q94.55-17.32 93.12-17.86Q91.68-18.40 89.90-18.40L89.90-18.40Q88.96-18.40 87.98-18.20Q86.99-18.01 86.04-17.65Q85.10-17.29 84.22-16.75Q83.34-16.21 82.62-15.53L82.62-15.53L82.62 0L76.84 0Z M111.95 8.79L114.10 3.91Q115.20 4.30 116.33 4.56Q117.46 4.82 118.53 4.99Q119.59 5.16 120.57 5.22Q121.54 5.29 122.30 5.29L122.30 5.29Q124.61 5.29 126.32 4.74Q128.03 4.18 129.17 3.24Q130.31 2.30 130.88 1.06Q131.45-0.18 131.45-1.56L131.45-1.56L131.45-2.56Q130.70-2.05 129.71-1.58Q128.71-1.11 127.52-0.76Q126.33-0.41 124.99-0.20Q123.65 0.02 122.23 0.02L122.23 0.02Q119.39 0.02 116.99-0.83Q114.59-1.68 112.83-3.21Q111.07-4.75 110.09-6.89Q109.10-9.04 109.10-11.66L109.10-11.66Q109.10-14.34 110.14-16.51Q111.17-18.69 113.00-20.23Q114.82-21.78 117.32-22.62Q119.82-23.46 122.75-23.46L122.75-23.46Q124.00-23.46 125.23-23.30Q126.46-23.14 127.59-22.87Q128.71-22.60 129.70-22.22Q130.68-21.84 131.45-21.39L131.45-21.39L131.45-23.05L137.23-23.05L137.23-2.64Q137.23 0.51 136.27 2.93Q135.31 5.35 133.47 7.00Q131.62 8.65 128.89 9.50Q126.15 10.35 122.62 10.35L122.62 10.35Q121.35 10.35 119.98 10.24Q118.61 10.14 117.24 9.93Q115.86 9.73 114.52 9.44Q113.18 9.16 111.95 8.79L111.95 8.79ZM115.18-11.72L115.18-11.72Q115.18-10.33 115.73-9.11Q116.29-7.89 117.32-6.98Q118.36-6.07 119.82-5.56Q121.29-5.04 123.13-5.04L123.13-5.04Q124.32-5.04 125.50-5.26Q126.68-5.49 127.76-5.90Q128.85-6.31 129.79-6.89Q130.74-7.48 131.45-8.20L131.45-8.20L131.45-15.80Q130.57-16.50 129.59-16.99Q128.61-17.48 127.60-17.79Q126.58-18.11 125.55-18.25Q124.51-18.40 123.54-18.40L123.54-18.40Q121.54-18.40 119.99-17.87Q118.44-17.34 117.37-16.44Q116.31-15.53 115.74-14.32Q115.18-13.11 115.18-11.72Z M142.71-7.27L142.71-7.27Q142.71-8.93 143.44-10.29Q144.16-11.66 145.61-12.65Q147.05-13.63 149.21-14.17Q151.37-14.71 154.24-14.71L154.24-14.71Q156.37-14.71 158.72-14.39Q161.07-14.08 163.57-13.44L163.57-13.44Q163.48-14.53 162.91-15.46Q162.34-16.39 161.34-17.06Q160.33-17.73 158.92-18.11Q157.50-18.48 155.70-18.48L155.70-18.48Q154.73-18.48 153.55-18.36Q152.38-18.24 151.13-18.01Q149.88-17.77 148.66-17.42Q147.44-17.07 146.39-16.58L146.39-16.58L144.63-21.33Q145.94-21.80 147.43-22.19Q148.93-22.58 150.49-22.86Q152.05-23.14 153.61-23.30Q155.18-23.46 156.64-23.46L156.64-23.46Q163.11-23.46 166.25-20.16Q169.39-16.86 169.39-10.04L169.39-10.04L169.39 0L163.61 0L163.61-2.17Q162.71-1.64 161.65-1.17Q160.59-0.70 159.34-0.35Q158.09 0 156.65 0.21Q155.21 0.41 153.61 0.41L153.61 0.41Q150.92 0.41 148.88-0.18Q146.84-0.76 145.47-1.80Q144.10-2.83 143.41-4.23Q142.71-5.63 142.71-7.27ZM148.81-7.46L148.81-7.46Q148.81-6.89 149.10-6.38Q149.39-5.86 150.04-5.46Q150.68-5.06 151.69-4.81Q152.70-4.57 154.12-4.57L154.12-4.57Q155.64-4.57 157.07-4.84Q158.50-5.12 159.73-5.57Q160.96-6.02 161.95-6.60Q162.95-7.19 163.61-7.81L163.61-7.81L163.61-8.83Q162.29-9.20 160.99-9.45Q159.69-9.71 158.51-9.85Q157.32-10 156.28-10.06Q155.23-10.12 154.45-10.12L154.45-10.12Q152.83-10.12 151.76-9.90Q150.68-9.69 150.02-9.33Q149.36-8.96 149.08-8.48Q148.81-7.99 148.81-7.46Z M177.19 0L177.19-23.05L182.97-23.05L182.97-21.09Q185.14-22.42 187.20-22.94Q189.26-23.46 191.23-23.46L191.23-23.46Q193.98-23.46 196.29-22.58Q198.59-21.70 200.23-19.92L200.23-19.92Q201.50-20.90 202.73-21.57Q203.96-22.25 205.20-22.67Q206.43-23.09 207.70-23.27Q208.96-23.46 210.31-23.46L210.31-23.46Q213.14-23.46 215.45-22.69Q217.75-21.91 219.38-20.39Q221.02-18.87 221.90-16.59Q222.79-14.32 222.79-11.33L222.79-11.33L222.79 0L217.03 0L217.03-10.39Q217.03-12.29 216.49-13.78Q215.96-15.27 214.99-16.30Q214.02-17.32 212.69-17.86Q211.35-18.40 209.75-18.40L209.75-18.40Q208.87-18.40 207.95-18.23Q207.03-18.07 206.16-17.71Q205.29-17.36 204.53-16.83Q203.77-16.29 203.20-15.57L203.20-15.57L203.20 0L197.44 0L197.44-10.39Q197.44-12.29 196.90-13.78Q196.37-15.27 195.40-16.30Q194.43-17.32 193.08-17.86Q191.72-18.40 190.10-18.40L190.10-18.40Q189.10-18.40 188.10-18.19Q187.09-17.99 186.16-17.62Q185.23-17.25 184.42-16.72Q183.61-16.19 182.97-15.53L182.97-15.53L182.97 0L177.19 0Z M228.48-2.70L230.98-7.07Q233.32-5.66 236.13-5Q238.95-4.34 241.89-4.34L241.89-4.34Q243.89-4.34 245.21-4.61Q246.54-4.88 247.34-5.31Q248.14-5.74 248.48-6.29Q248.81-6.84 248.81-7.40L248.81-7.40Q248.81-8.22 248.10-8.81Q247.38-9.39 245.74-9.39L245.74-9.39Q244.98-9.39 244.10-9.30Q243.22-9.20 242.26-9.09Q241.29-8.98 240.24-8.89Q239.20-8.79 238.13-8.79L238.13-8.79Q235.78-8.79 234.13-9.30Q232.48-9.80 231.45-10.68Q230.41-11.56 229.94-12.76Q229.47-13.96 229.47-15.35L229.47-15.35Q229.47-17.11 230.29-18.59Q231.11-20.08 232.64-21.16Q234.16-22.25 236.32-22.85Q238.48-23.46 241.13-23.46L241.13-23.46Q242.52-23.46 244.03-23.29Q245.55-23.13 247.01-22.85Q248.48-22.58 249.82-22.22Q251.17-21.86 252.21-21.45L252.21-21.45L250.39-16.95Q248.18-17.77 245.99-18.25Q243.79-18.73 241.46-18.73L241.46-18.73Q239.84-18.73 238.72-18.49Q237.60-18.24 236.89-17.84Q236.19-17.44 235.87-16.92Q235.55-16.41 235.55-15.84L235.55-15.84Q235.55-15.43 235.71-15.10Q235.88-14.77 236.26-14.52Q236.64-14.28 237.26-14.15Q237.87-14.02 238.77-14.02L238.77-14.02Q239.59-14.02 240.51-14.12Q241.43-14.22 242.42-14.33Q243.42-14.43 244.48-14.53Q245.55-14.63 246.66-14.63L246.66-14.63Q248.73-14.63 250.28-14.14Q251.84-13.65 252.85-12.77Q253.87-11.89 254.38-10.70Q254.88-9.51 254.88-8.11L254.88-8.11Q254.88-6.29 254.04-4.73Q253.20-3.16 251.54-2.02Q249.88-0.88 247.41-0.23Q244.94 0.41 241.70 0.41L241.70 0.41Q239.71 0.41 237.85 0.17Q236.00-0.08 234.32-0.50Q232.64-0.92 231.16-1.48Q229.69-2.05 228.48-2.70L228.48-2.70Z M258.69-11.52L258.69-11.52Q258.69-14.00 259.70-16.17Q260.70-18.34 262.57-19.96Q264.43-21.58 267.08-22.52Q269.73-23.46 273.03-23.46L273.03-23.46Q276.33-23.46 278.97-22.52Q281.62-21.58 283.49-19.96Q285.35-18.34 286.36-16.17Q287.36-14.00 287.36-11.52L287.36-11.52Q287.36-9.04 286.36-6.88Q285.35-4.71 283.49-3.09Q281.62-1.46 278.97-0.53Q276.33 0.41 273.03 0.41L273.03 0.41Q269.73 0.41 267.08-0.53Q264.43-1.46 262.57-3.09Q260.70-4.71 259.70-6.88Q258.69-9.04 258.69-11.52ZM264.77-11.52L264.77-11.52Q264.77-10.14 265.32-8.90Q265.88-7.66 266.94-6.71Q268.01-5.76 269.54-5.21Q271.07-4.65 273.03-4.65L273.03-4.65Q274.98-4.65 276.51-5.21Q278.05-5.76 279.11-6.71Q280.18-7.66 280.73-8.90Q281.29-10.14 281.29-11.52L281.29-11.52Q281.29-12.91 280.73-14.16Q280.18-15.41 279.11-16.36Q278.05-17.30 276.51-17.86Q274.98-18.42 273.03-18.42L273.03-18.42Q271.07-18.42 269.54-17.86Q268.01-17.30 266.94-16.36Q265.88-15.41 265.32-14.16Q264.77-12.91 264.77-11.52Z M303.18 0L315.88-15.51L304.14-30.53L311.72-30.53L319.82-20.02L327.97-30.53L335.43-30.53L323.48-15.57L335.84 0L328.24 0L319.55-10.98L310.66 0L303.18 0Z M338.67-7.27L338.67-7.27Q338.67-8.93 339.39-10.29Q340.12-11.66 341.56-12.65Q343.01-13.63 345.17-14.17Q347.32-14.71 350.20-14.71L350.20-14.71Q352.32-14.71 354.68-14.39Q357.03-14.08 359.53-13.44L359.53-13.44Q359.43-14.53 358.87-15.46Q358.30-16.39 357.29-17.06Q356.29-17.73 354.87-18.11Q353.46-18.48 351.66-18.48L351.66-18.48Q350.68-18.48 349.51-18.36Q348.34-18.24 347.09-18.01Q345.84-17.77 344.62-17.42Q343.40-17.07 342.34-16.58L342.34-16.58L340.59-21.33Q341.89-21.80 343.39-22.19Q344.88-22.58 346.45-22.86Q348.01-23.14 349.57-23.30Q351.13-23.46 352.60-23.46L352.60-23.46Q359.06-23.46 362.21-20.16Q365.35-16.86 365.35-10.04L365.35-10.04L365.35 0L359.57 0L359.57-2.17Q358.67-1.64 357.61-1.17Q356.54-0.70 355.29-0.35Q354.04 0 352.61 0.21Q351.17 0.41 349.57 0.41L349.57 0.41Q346.88 0.41 344.83-0.18Q342.79-0.76 341.43-1.80Q340.06-2.83 339.37-4.23Q338.67-5.63 338.67-7.27ZM344.77-7.46L344.77-7.46Q344.77-6.89 345.06-6.38Q345.35-5.86 346.00-5.46Q346.64-5.06 347.65-4.81Q348.65-4.57 350.08-4.57L350.08-4.57Q351.60-4.57 353.03-4.84Q354.45-5.12 355.68-5.57Q356.91-6.02 357.91-6.60Q358.91-7.19 359.57-7.81L359.57-7.81L359.57-8.83Q358.24-9.20 356.94-9.45Q355.64-9.71 354.46-9.85Q353.28-10 352.24-10.06Q351.19-10.12 350.41-10.12L350.41-10.12Q348.79-10.12 347.71-9.90Q346.64-9.69 345.98-9.33Q345.31-8.96 345.04-8.48Q344.77-7.99 344.77-7.46Z M369.98 0L384.10-18.24L372.29-18.24L372.29-23.05L394.82-23.05L380.61-4.80L394.04-4.80L394.04 0L369.98 0Z M402.68-26.19L402.68-26.19Q401.82-26.19 401.12-26.44Q400.43-26.68 399.94-27.10Q399.45-27.52 399.19-28.08Q398.93-28.63 398.93-29.26L398.93-29.26Q398.93-29.90 399.19-30.46Q399.45-31.02 399.94-31.43Q400.43-31.84 401.12-32.08Q401.82-32.32 402.68-32.32L402.68-32.32Q403.55-32.32 404.25-32.08Q404.94-31.84 405.43-31.43Q405.92-31.02 406.18-30.46Q406.45-29.90 406.45-29.26L406.45-29.26Q406.45-28.63 406.18-28.08Q405.92-27.52 405.43-27.10Q404.94-26.68 404.25-26.44Q403.55-26.19 402.68-26.19ZM399.79 0L399.79-23.05L405.57-23.05L405.57 0L399.79 0Z"/></g>
</svg>
</g><g opacity="1" transform="rotate(0 -48.4781 132.8486)">
<svg width="99.9999" height="100" x="-48.4781" y="132.8486" version="1.1" preserveAspectRatio="none" viewBox="0 0 99.9999 100">
  <defs><rect x="0" y="0" width="99.9999" height="100" rx="0px" ry="0px" id="id-tBXipXk0b1708598505120"></rect></defs><use class="companyName text-str" style="stroke-width:0;" xlink:href="#id-tBXipXk0b1708598505120"></use>
</svg>
</g><g opacity="1" transform="rotate(0 -28.4781 153.1845)">
<svg width="59.9999" height="59.3282" x="-28.4781" y="153.1845" version="1.1" preserveAspectRatio="none" viewBox="3064.9697265625 1888.20166015625 55364.5625 54744.7734375">
  <g transform="matrix(1 0 0 1 0 0)" class="icon3"><defs></defs><g><path class="fil0" d="M23475.56 11707.9c-215.73,44.87 -427.01,-93.65 -471.88,-309.38 -44.87,-215.73 93.65,-427.01 309.38,-471.88 6215.94,-1308.62 11520.92,-235.37 15675.27,2271.38 2542.14,1533.94 4651.8,3605.98 6274.36,5998.43 1619.99,2388.67 2752.75,5095.56 3343.91,7903.58 1050.91,4991.84 393,10309.19 -2278.12,14735.95 -5308.56,8797.71 -15008.15,11791.8 -23875.83,10451.26 -328.19,-49.61 -655.25,-105.22 -980.93,-166.68 1679.74,1137.12 3415.96,1997.01 5177.39,2601.54 2628.31,24.63 5324.08,-383.68 7945.94,-1146.28 5998.91,-1744.84 11600.55,-5339.38 15124.52,-9846.19 626.99,-801.87 1188.44,-1633.6 1674.77,-2489.86 2901.47,-5108.56 3739.65,-10952.21 2989.04,-16520.61 -315.79,-2342.73 -912.61,-4636.1 -1755.12,-6805.14 -2613.07,-3318.26 -6061.33,-6168.16 -9885.11,-8397.25 -6095.2,-3553.22 -12045.47,-5195.44 -17382.58,-5239.5 -1921.93,737.87 -3794.44,1706.59 -5581.29,2861.45 -3675.05,2375.23 -6984.19,5535.92 -9614.43,9094.19 -3392.66,4589.7 -5273.57,8880.62 -5974.97,12781.62 362.18,3279.86 1258.37,6805.26 2765.61,10525.64 952.83,2351.91 2148.24,4562.49 3560.72,6530.02 110.16,153.44 221.66,305.39 334.44,455.86 636.18,505.82 1304.68,978.34 2000.87,1416.07 1592.81,1001.49 3330.23,1821.07 5154.97,2442.91 -408.05,-375.42 -811.31,-768.94 -1209.21,-1181.1 -2005.36,-2077.19 -3662.91,-4395.79 -4928.05,-6715.03 -1370.44,-2512.26 -2281.25,-5025.87 -2676.25,-7236.48 -38.83,-217.46 105.98,-425.23 323.44,-464.06 217.46,-38.83 425.23,105.98 464.06,323.44 381.4,2134.51 1262.4,4564.4 2588.75,6995.84 1231.85,2258.21 2847.23,4517.3 4803.05,6543.17 815.5,844.72 1653.59,1608.82 2509.75,2295.7 883.38,228.94 1781.81,412.91 2689.38,550.11 8577.48,1296.67 17952.73,-1587.99 23072.69,-10073.14 2562.92,-4247.45 3192.42,-9357.86 2181.24,-14160.95 -570.35,-2709.16 -1661.84,-5318.71 -3222.03,-7619.2 -1557.63,-2296.71 -3584.2,-4286.65 -6027.48,-5760.93 -3991.84,-2408.7 -9100.61,-3437.59 -15100.27,-2174.5zm-3956.62 39969.4c-2372.29,-631.05 -4638.45,-1578.64 -6689.12,-2812.21 736.36,768.55 1514.6,1477.3 2332.4,2116.76 643.69,503.32 1317.39,952.35 2016.58,1349.47 2133.16,1211.57 4495.16,1931.69 6961.05,2230.16 -1579.33,-745.67 -3127.01,-1702 -4620.91,-2884.18zm-9242.5 -4588.71c-2035.5,-1632.97 -3749.59,-3599.06 -4995.34,-5857.15 -1907.91,-3458.34 -2716.42,-7593.82 -1899,-12255.24 -358.48,-3363.53 -168.66,-6478.68 490.54,-9292.29 1084.53,-4629.04 3437.54,-8441.6 6708.68,-11204.82 3268.2,-2760.73 7450.31,-4470.03 12196.39,-4895.37 796.3,-71.37 1608.62,-106.17 2434.99,-104.04 1808.66,-683.23 3661.13,-1168.38 5529.28,-1420.2 4293.44,-578.74 8275.73,338.86 11735.99,2304.16 3396.02,1928.83 6285.99,4867.4 8469.35,8389.11 925.37,1492.61 1723.88,3090.41 2380.33,4760.63 1118.61,1432.12 2087.02,2949.36 2870.15,4540.47 2325.4,4724.6 3021.09,10093.13 1186.1,15807.91 -1465.14,4562.91 -4009.9,8537.01 -7222.7,11638.69 -3126.77,3018.63 -6887.79,5211.81 -10904.1,6318.47 -4024.58,1108.93 -8304.32,1127.23 -12459.35,-206.94 -96.08,-30.85 -192.09,-62.56 -288.03,-94.86 -3449.75,-50.63 -6790.56,-825.56 -9724.68,-2492.04 -730.24,-414.75 -1436.23,-885.59 -2113.44,-1415.11 -1623.51,-1269.47 -3094.22,-2799.39 -4395.16,-4521.38zm-4295.34 -6241.53c651.37,1180.69 1437.19,2278.77 2334.52,3287.77 -793.54,-1361.82 -1495.87,-2801.62 -2100.75,-4294.66 -1079.53,-2664.65 -1851.45,-5233.8 -2343.46,-7689.52 -66.86,3242.24 711.53,6162.06 2109.69,8696.41zm-1971.37 -14522.52c981.3,-3306.69 2763.27,-6844.68 5514.5,-10566.63 2686.47,-3634.34 6067.63,-6863.42 9823.79,-9291.07 1230.59,-795.34 2501.83,-1504.8 3802.55,-2114.61 -101.61,7.85 -203.02,16.19 -304.1,25.25 -4576.59,410.15 -8605.39,2055.06 -11749.53,4710.99 -3141.21,2653.47 -5402.06,6320.16 -6446.18,10776.7 -468.69,2000.46 -692.21,4160.33 -641.03,6459.37zm26838.51 -23474.44c-1141.37,153.85 -2277.57,398.13 -3401.71,724.21 4915.01,400.22 10254.81,2079.51 15696.62,5251.84 3110.55,1813.31 5979.86,4031.66 8372.15,6576.87 -383.9,-766.43 -799.79,-1511.62 -1246.1,-2231.51 -2114.12,-3410.03 -4907.28,-6252.49 -8184.99,-8114.11 -3314,-1882.23 -7126.74,-2761.21 -11235.97,-2207.3zm23390.87 17340.04c418.07,1442.3 732.7,2922.75 934.89,4422.76 772.58,5731.38 -93.05,11751.19 -3085.9,17020.63 -504.37,888.03 -1087.85,1752.15 -1740.41,2586.72 -3625.45,4636.59 -9377.38,8331.42 -15530.76,10121.19 -1855.34,539.64 -3748.1,906.35 -5631.37,1074.13 3315.57,681.76 6669.78,513.36 9859.04,-365.41 3887.4,-1071.14 7530.97,-3197.08 10563.48,-6124.71 3120.72,-3012.78 5592.79,-6873.75 7016.44,-11307.45 1765.42,-5498.1 1095.64,-10664.05 -1142.34,-15211.03 -372.27,-756.36 -788.1,-1495.67 -1243.07,-2216.83z"></path></g></g>
</svg>
</g></svg></svg>