<svg version="1.1" preserveAspectRatio="none" xmlns="http://www.w3.org/2000/svg" width="500" height="500" viewBox="0 0 500 500"><rect width="100%" height="100%" fill="#232128" fill-opacity="1"/><svg viewBox="-62.7309 132.1156 566.6972 110" width="333" height="64.63769363956625" x="83.5px" y="217.6812px" xmlns="http://www.w3.org/2000/svg" xmlns:xlink="http://www.w3.org/1999/xlink" preserveAspectRatio="none"><defs></defs><style>.companyName {fill:#A5AEAD;fill-opacity:1;}.icon1 {fill:#A4747F;fill-opacity:1;}.icon2 {fill:#8CA6A2;fill-opacity:1;}.icon3 {fill:#5E718C;fill-opacity:1;}.icon3-str {stroke:#5E718C;stroke-opacity:1;}</style><g opacity="1" transform="rotate(0 -62.7309 132.1156)">
<svg width="162.4532" height="110" x="-62.7309" y="132.1156" version="1.1" preserveAspectRatio="none" viewBox="5.387998580932617 19.706003189086914 90.5719985961914 61.3280029296875">
  <g transform="matrix(1 0 0 1 0 0)" class="icon1"><path d="M58.014,71.766c0.006-0.007,0.011-0.012,0.016-0.019c0.172-0.176,0.342-0.354,0.508-0.533  c0.01-0.01,0.018-0.019,0.026-0.028c0.164-0.177,0.327-0.358,0.487-0.54c0.01-0.01,0.02-0.02,0.028-0.03  c0.161-0.185,0.32-0.369,0.478-0.557c0.007-0.009,0.015-0.016,0.021-0.024c0.162-0.193,0.322-0.39,0.48-0.588  c0-0.001,0-0.001,0-0.001c-2.058,3.361-4.745,6.294-7.897,8.638c3.981,1.891,8.435,2.95,13.136,2.95  c16.935,0,30.663-13.729,30.663-30.664c0-16.935-13.729-30.663-30.663-30.663c-8.341,0-15.902,3.332-21.43,8.734  c-0.001,0.001-0.003,0.003-0.004,0.004c-0.179,0.175-0.356,0.353-0.531,0.532c-0.006,0.007-0.013,0.013-0.02,0.02  c-0.17,0.176-0.338,0.353-0.504,0.531c-0.01,0.011-0.02,0.021-0.029,0.031c-0.163,0.177-0.325,0.356-0.485,0.538  c-0.01,0.011-0.02,0.022-0.029,0.033c-0.161,0.183-0.32,0.368-0.478,0.556c-0.007,0.008-0.015,0.016-0.021,0.024  c-0.163,0.194-0.323,0.391-0.481,0.589c0,0.001,0,0.001,0,0.001c2.058-3.364,4.748-6.299,7.901-8.645  c-3.981-1.891-8.434-2.949-13.134-2.949c-16.936,0-30.664,13.729-30.664,30.663c0,16.936,13.729,30.664,30.664,30.664  C44.664,81.033,52.445,77.481,58.014,71.766z M18.031,50.369c0-9.952,8.067-18.021,18.021-18.021c1.409,0,2.78,0.167,4.098,0.474  c-3.477,4.972-5.517,11.021-5.517,17.547s2.04,12.576,5.517,17.549c-1.317,0.305-2.688,0.473-4.098,0.473  C26.098,68.391,18.031,60.322,18.031,50.369z M50.675,41.128c1.837,1.781,3.085,5.252,3.085,9.241c0,3.99-1.248,7.461-3.085,9.242  c-1.838-1.781-3.085-5.252-3.085-9.242C47.59,46.38,48.837,42.909,50.675,41.128z M61.199,67.918  c3.475-4.973,5.516-11.022,5.516-17.549s-2.041-12.575-5.516-17.547c1.316-0.307,2.688-0.474,4.098-0.474  c9.952,0,18.021,8.068,18.021,18.021c0,9.953-8.069,18.021-18.021,18.021C63.886,68.391,62.516,68.223,61.199,67.918z"></path></g>
</svg>
</g><g opacity="1" transform="rotate(0 117.7223 162.1156)">
<svg width="386.244" height="50" x="117.7223" y="162.1156" version="1.1" preserveAspectRatio="none" viewBox="1.7578 -28.0273 286.81640000000004 37.1289">
  <g transform="matrix(1 0 0 1 0 0)" class="companyName"><path id="id-D6z1nYkh13" d="M26.17-6.25Q26.13-5.14 26.13-3.10Q26.13-1.05 25.89-0.69Q25.64-0.33 24.65-0.33L24.65-0.33Q24.32-0.33 22.99-1.06Q21.66-1.80 20.59-3.13L20.59-3.13Q20.14-3.67 14.80-11.46Q9.47-19.26 8.52-19.26L8.52-19.26Q8.13-19.26 8.13-13.96Q8.13-8.65 8.89-4.41L8.89-4.41Q9.10-3.22 9.64-2.48Q10.18-1.74 10.18-1.25L10.18-1.25L10.02-0.80Q9.45-0.14 6.27-0.14L6.27-0.14L5.43-0.14Q2.91-0.14 2.44-0.51Q1.97-0.88 1.97-1.62L1.97-1.62Q1.97-2.03 3.06-2.69Q4.14-3.34 4.36-3.98L4.36-3.98Q4.47-4.34 4.47-7.46L4.47-7.46L4.51-8.40L4.57-11.21Q4.63-14.00 4.63-17.57Q4.63-21.13 4.37-22.04Q4.10-22.95 2.93-23.82Q1.76-24.69 1.76-25.40Q1.76-26.11 2.31-26.49Q2.87-26.88 4.47-26.88L4.47-26.88L5.35-26.88Q8.52-26.88 10.98-24.20Q13.44-21.52 17.55-15.55Q21.66-9.57 22.29-9.57L22.29-9.57Q23.03-9.57 23.03-17.27L23.03-17.27Q23.03-22.99 21.76-24.47L21.76-24.47Q21.04-25.33 21.04-25.66L21.04-25.66Q21.04-26.54 22.81-26.54L22.81-26.54Q26.37-26.54 27.71-26.24Q29.04-25.94 29.04-24.98L29.04-24.98Q29.04-24.41 27.88-23.23Q26.72-22.05 26.60-21.57Q26.48-21.09 26.48-17.03L26.48-17.03L26.23-7.97L26.21-7.11L26.17-6.25Z M42.95-7.99L42.95-7.99Q42.95-8.87 42.40-8.87L42.40-8.87L41.89-8.87Q41.41-8.77 41.15-8.77L41.15-8.77Q39.38-8.77 38.16-7.73Q36.95-6.70 36.95-5.39L36.95-5.39L36.95-4.94Q36.95-3.95 37.58-3.22Q38.20-2.50 39.10-2.50L39.10-2.50L39.73-2.50Q41.02-2.50 41.93-3.30Q42.85-4.10 42.85-4.86L42.85-4.86Q42.93-5.25 42.93-5.37L42.93-5.37L42.97-5.68L42.97-6.52L42.99-6.84L42.99-7.70Q42.95-7.89 42.95-7.99ZM50.88-1.80L50.88-1.80L50.88-1.50Q50.88-0.84 49.41-0.26Q47.95 0.31 45.94 0.31L45.94 0.31Q44.71 0.31 43.81-0.80L43.81-0.80Q43.32-1.43 43.05-1.43L43.05-1.43Q42.77-1.45 42.11-0.98L42.11-0.98Q39.88 0.55 37.30 0.55L37.30 0.55Q37.29 0.55 37.27 0.57L37.27 0.57Q34.73 0.57 33.20-0.74Q31.68-2.05 31.66-4.41L31.66-4.41Q31.66-9.49 39.47-10.80L39.47-10.80Q41.35-11.09 41.72-11.25L41.72-11.25Q42.85-11.72 42.85-13.34Q42.85-14.96 42.12-15.67Q41.39-16.39 40.41-16.39L40.41-16.39Q38.87-16.39 37.62-14.74Q36.37-13.09 34.71-13.09L34.71-13.09Q33.73-13.09 33.23-13.62Q32.73-14.16 32.73-14.73L32.73-14.73Q32.73-16.45 34.53-17.46L34.53-17.46Q37.52-19.14 40.86-19.14L40.86-19.14L41.88-19.14Q43.55-19.14 45.09-18.43Q46.62-17.71 47.46-16.25Q48.30-14.79 48.30-9.71Q48.30-4.63 48.62-3.86Q48.95-3.09 49.91-2.72Q50.88-2.36 50.88-1.80Z M76.02-1.37L76.02-1.37Q76.02-0.64 74.83-0.30Q73.65 0.04 70.87 0.04Q68.09 0.04 67.54-0.35Q66.99-0.74 66.99-1.28Q66.99-1.82 67.49-2.91Q67.99-4.00 68.11-4.67Q68.22-5.33 68.22-9.16Q68.22-12.99 67.57-14.38Q66.91-15.78 65-15.78Q63.09-15.78 61.89-14.12L61.89-14.12Q61.09-13.01 61.09-10.04L61.09-10.04Q61.09-5.14 61.99-2.85L61.99-2.85Q62.54-1.52 62.54-1.13L62.54-1.13Q62.54-0.39 61.64-0.21Q60.74-0.02 57.74-0.02Q54.75-0.02 54.12-0.42Q53.50-0.82 53.50-1.50Q53.50-2.19 54.53-2.87Q55.57-3.55 55.70-4.11Q55.84-4.67 55.84-9.07Q55.84-13.48 55.55-14.23Q55.25-14.98 54.38-15.98Q53.50-16.97 53.50-16.99L53.50-16.99L53.50-17.40Q53.50-17.73 53.98-18.01L53.98-18.01Q55.68-18.98 59.04-18.98L59.04-18.98Q59.98-18.98 60.62-18.07Q61.25-17.15 61.54-17.15Q61.84-17.15 62.92-17.78Q64.00-18.42 64.10-18.46L64.10-18.46Q65.66-19.18 67.01-19.18L67.01-19.18L67.64-19.18Q71.05-19.18 72.52-16.45L72.52-16.45Q73.46-14.67 73.46-7.91L73.46-7.91Q73.46-4.30 73.69-3.79Q73.93-3.28 74.97-2.63Q76.02-1.97 76.02-1.37Z M89.59-13.20L89.57-13.34L89.53-14.00Q89.53-15.51 88.72-16.55Q87.91-17.60 86.82-17.60L86.82-17.60L86.58-17.60Q85.59-17.60 84.82-16.46Q84.06-15.31 84.06-13.75L84.06-13.75L84.06-12.75Q84.06-10.88 84.95-9.61Q85.84-8.34 86.89-8.34L86.89-8.34L87.03-8.34Q88.03-8.34 88.78-9.31Q89.53-10.27 89.53-11.54L89.53-11.54L89.55-11.66L89.57-11.80L89.59-12.21L89.59-13.20ZM90.64 0.18L90.64 0.18Q89.71 0.02 89.00 0.02L89.00 0.02L88.85 0L88.71-0.02L87.83-0.08Q87.68-0.10 87.56-0.10L87.56-0.10L86.91-0.16L86.48-0.16L86.35-0.14L85.94-0.12L85.41-0.06Q84.47-0.06 83.71 0.77Q82.95 1.60 82.95 2.75L82.95 2.75L82.95 3.16Q82.95 4.41 83.92 5.09Q84.88 5.76 86.37 5.76L86.37 5.76L87.23 5.76Q89.73 5.76 91.60 4.39L91.60 4.39Q92.77 3.54 92.77 1.97L92.77 1.97L92.75 1.84Q92.75 1.23 92.23 0.70Q91.70 0.18 90.64 0.18ZM97.29-18.49Q97.66-18.11 97.66-17.30Q97.66-16.50 96.88-16.15L96.88-16.15Q95.55-15.57 95.47-15.41L95.47-15.41Q95.23-14.96 95.23-13.96L95.23-13.96L95.25-13.46Q95.31-12.66 95.31-12.29L95.31-12.29Q95.31-11.02 94.67-9.80L94.67-9.80Q92.91-6.45 88.18-5.88L88.18-5.88Q86.09-5.63 86.02-5.61L86.02-5.61Q84.79-5.20 84.79-4.38L84.79-4.38Q84.79-3.65 85.57-3.39Q86.35-3.13 89.89-2.89Q93.44-2.66 94.68-1.99Q95.92-1.33 96.47-0.46Q97.03 0.41 97.03 1.97Q97.03 3.54 96.13 4.82L96.13 4.82Q94.30 7.46 90.35 8.55L90.35 8.55Q88.40 9.10 86.29 9.10L86.29 9.10L85.68 9.10Q82.09 9.10 80.19 7.76Q78.28 6.43 78.28 4.49L78.28 4.49Q78.28 3.20 79.12 2.03L79.12 2.03Q79.28 1.82 79.95 1.07Q80.63 0.33 80.63-0.06L80.63-0.06Q80.63-0.10 79.92-1.08Q79.22-2.07 79.22-3.07Q79.22-4.06 80.27-5.43Q81.33-6.80 81.33-6.97Q81.33-7.15 80.29-8.28L80.29-8.28Q79.28-9.45 78.81-11.13L78.81-11.13Q78.65-11.70 78.65-12.30L78.65-12.30Q78.65-12.36 78.65-12.44L78.65-12.44Q78.65-13.55 79.10-14.69L79.10-14.69Q79.84-16.56 81.50-17.58L81.50-17.58Q83.79-19.00 86.82-19.00L86.82-19.00L87.40-19.00Q87.56-19.00 89.71-18.85L89.71-18.85L90.76-18.73Q91.64-18.63 91.78-18.63L91.78-18.63L96.02-18.87Q96.93-18.87 97.29-18.49Z M111.43-7.99L111.43-7.99Q111.43-8.87 110.88-8.87L110.88-8.87L110.37-8.87Q109.88-8.77 109.63-8.77L109.63-8.77Q107.85-8.77 106.64-7.73Q105.43-6.70 105.43-5.39L105.43-5.39L105.43-4.94Q105.43-3.95 106.05-3.22Q106.68-2.50 107.58-2.50L107.58-2.50L108.20-2.50Q109.49-2.50 110.41-3.30Q111.33-4.10 111.33-4.86L111.33-4.86Q111.41-5.25 111.41-5.37L111.41-5.37L111.45-5.68L111.45-6.52L111.46-6.84L111.46-7.70Q111.43-7.89 111.43-7.99ZM119.36-1.80L119.36-1.80L119.36-1.50Q119.36-0.84 117.89-0.26Q116.43 0.31 114.41 0.31L114.41 0.31Q113.18 0.31 112.29-0.80L112.29-0.80Q111.80-1.43 111.52-1.43L111.52-1.43Q111.25-1.45 110.59-0.98L110.59-0.98Q108.36 0.55 105.78 0.55L105.78 0.55Q105.76 0.55 105.74 0.57L105.74 0.57Q103.20 0.57 101.68-0.74Q100.16-2.05 100.14-4.41L100.14-4.41Q100.14-9.49 107.95-10.80L107.95-10.80Q109.82-11.09 110.20-11.25L110.20-11.25Q111.33-11.72 111.33-13.34Q111.33-14.96 110.60-15.67Q109.86-16.39 108.89-16.39L108.89-16.39Q107.34-16.39 106.09-14.74Q104.84-13.09 103.18-13.09L103.18-13.09Q102.21-13.09 101.71-13.62Q101.21-14.16 101.21-14.73L101.21-14.73Q101.21-16.45 103.01-17.46L103.01-17.46Q106.00-19.14 109.34-19.14L109.34-19.14L110.35-19.14Q112.03-19.14 113.56-18.43Q115.10-17.71 115.94-16.25Q116.78-14.79 116.78-9.71Q116.78-4.63 117.10-3.86Q117.42-3.09 118.39-2.72Q119.36-2.36 119.36-1.80Z M155.29-1.80L155.29-1.80Q155.29 0.02 150.12 0.02L150.12 0.02Q148.42 0.02 147.77-0.38Q147.13-0.78 147.13-1.78L147.13-1.78L147.38-3.03Q147.75-5 147.75-9.03Q147.75-13.07 147.07-14.38Q146.39-15.70 144.38-15.70L144.38-15.70Q143.69-15.70 142.89-15.17Q142.09-14.63 141.69-13.71Q141.29-12.79 141.29-8.97Q141.29-5.16 141.51-4.43Q141.74-3.71 142.52-2.69Q143.30-1.66 143.30-1.08Q143.30-0.51 142.55-0.25Q141.80 0 138.59 0Q135.39 0 134.89-0.33Q134.39-0.66 134.39-1.54L134.39-1.54Q134.39-1.84 135.05-2.69Q135.70-3.54 135.89-4.24Q136.07-4.94 136.07-8.75Q136.07-12.56 135.45-14.04Q134.82-15.53 133.16-15.53Q131.50-15.53 130.35-14.00L130.35-14.00Q129.55-12.95 129.55-11.07Q129.55-9.20 129.73-6.70Q129.90-4.20 130.12-3.18Q130.33-2.17 130.33-1.46Q130.33-0.76 129.71-0.38Q129.08 0 126.74 0L126.74 0Q122.21 0 122.21-1.64L122.21-1.64Q122.21-2.17 123.09-3.15Q123.96-4.14 124.08-4.58Q124.20-5.02 124.20-8.87Q124.20-12.71 123.69-14.18L123.69-14.18Q123.55-14.55 122.92-15.56Q122.29-16.56 122.29-17.09L122.29-17.09Q122.29-17.83 123.54-18.20L123.54-18.20Q125.76-18.87 127.50-18.87L127.50-18.87Q128.07-18.87 128.87-18.04Q129.67-17.21 129.88-17.21L129.88-17.21L130.51-17.56Q131.66-18.22 131.99-18.38L131.99-18.38Q133.79-19.20 135.39-19.20Q136.99-19.20 137.77-18.85Q138.55-18.50 139.47-17.83Q140.39-17.17 140.85-17.17Q141.31-17.17 143.38-18.13Q145.45-19.08 147.25-19.08L147.25-19.08Q150.49-19.08 152.01-16.21L152.01-16.21Q153.03-14.34 153.03-6.31L153.03-6.31Q153.03-4.28 153.25-3.82Q153.48-3.36 154.38-2.72Q155.29-2.09 155.29-1.80Z M171.07-18.40Q171.95-17.89 171.95-16.25Q171.95-14.61 171.72-14.08Q171.48-13.55 170.80-13.55L170.80-13.55Q169.71-13.55 168.45-15.14Q167.19-16.72 165.27-16.72L165.27-16.72Q164.18-16.72 163.54-16.15Q162.89-15.59 162.89-14.90L162.89-14.90Q162.89-13.73 164.02-12.95L164.02-12.95Q164.57-12.58 167.53-11.34Q170.49-10.10 171.77-8.78Q173.05-7.46 173.05-5.20Q173.05-2.93 171.11-1.25Q169.18 0.43 166.15 0.43L166.15 0.43L165.12 0.43Q161.33 0.43 159.43-0.47L159.43-0.47Q158.11-1.09 158.11-3.44Q158.11-5.78 158.98-5.78L158.98-5.78Q160.10-5.78 161.75-3.96Q163.40-2.15 165.33-2.15L165.33-2.15Q166.50-2.15 167.31-2.65Q168.13-3.14 168.13-4.21Q168.13-5.27 166.99-6.11L166.99-6.11Q166.39-6.56 163.72-7.71Q161.05-8.85 159.92-9.92L159.92-9.92Q158.22-11.52 158.22-13.86Q158.22-16.19 160.21-17.72Q162.21-19.26 164.86-19.26L164.86-19.26L165.39-19.26Q169.57-19.26 171.07-18.40L171.07-18.40Z M185.41-16.74L185.41-16.74L185.04-16.74Q183.36-16.74 182.29-14.84Q181.23-12.95 181.23-10.31L181.23-10.31L181.23-9.22Q181.23-6.25 182.46-4.20Q183.69-2.15 185.41-2.15L185.41-2.15L185.78-2.15Q187.29-2.15 188.41-3.68Q189.53-5.21 189.53-7.77L189.53-7.77L189.57-8.18L189.59-9.00L189.59-9.22L189.57-9.43L189.57-9.84Q189.53-10.27 189.53-10.47L189.53-10.47Q189.53-13.07 188.30-14.90Q187.07-16.74 185.41-16.74ZM185.43-19.34L185.43-19.34L186.41-19.34Q188.14-19.34 189.98-18.52L189.98-18.52Q193.48-16.95 194.79-13.44L194.79-13.44Q195.45-11.62 195.45-9.73L195.45-9.73L195.45-9.38Q195.45-7.34 194.63-5.39Q193.81-3.44 192.42-2.15L192.42-2.15Q189.53 0.47 185.78 0.47L185.78 0.47Q185.49 0.47 185.20 0.45L185.20 0.45Q183.32 0.45 181.51-0.30Q179.71-1.05 178.55-2.30L178.55-2.30Q176.07-5.04 176.07-9.16L176.07-9.16L176.07-9.49L176.09-9.82Q176.11-11.64 176.78-13.42L176.78-13.42Q178.07-16.82 181.50-18.44L181.50-18.44Q183.44-19.34 185.43-19.34Z M221.95-17.87L221.95-17.87Q222.64-17.87 223.44-18.93L223.44-18.93Q226.05-22.36 226.05-23.59L226.05-23.59Q226.05-24.34 225.86-24.67L225.86-24.67Q225.18-25.86 225.18-26.31Q225.18-26.76 225.66-26.93Q226.15-27.11 228.87-27.11L228.87-27.11Q233.96-27.11 233.96-26.33Q233.96-25.55 233.67-25.18Q233.38-24.80 231.96-24.10Q230.55-23.40 229.32-21.82L229.32-21.82Q224.51-15.70 224.51-14.30L224.51-14.30Q224.51-13.98 225.27-12.85L225.27-12.85Q229.18-7.03 231.25-4.53L231.25-4.53Q232.03-3.59 233.01-3.01L233.01-3.01Q234.71-1.99 234.71-1.25Q234.71-0.51 233.98-0.35L233.98-0.35Q232.38 0 228.73 0Q225.08 0 224.52-0.26Q223.96-0.53 223.96-1.12Q223.96-1.72 224.14-2.17L224.14-2.17L224.36-2.62L224.55-3.11Q224.55-4.36 221.89-8.52L221.89-8.52Q220.82-10.20 220.47-10.20L220.47-10.20Q219.80-10.20 218.48-8.30L218.48-8.30Q216.25-5.12 216.25-4.26Q216.25-3.40 216.52-2.70L216.52-2.70L216.80-2.15Q217.17-1.39 217.17-1.13L217.17-1.13Q217.17-0.43 216.02-0.23Q214.86-0.04 211.50-0.04Q208.14-0.04 208.14-1.07L208.14-1.07Q208.14-1.54 210.61-3.46L210.61-3.46Q211.54-4.20 213.36-6.58L213.36-6.58Q217.79-12.44 217.79-13.46L217.79-13.46Q217.79-14.77 212.48-21.88L212.48-21.88Q211.37-23.36 209.89-24.37Q208.42-25.37 208.42-26.00L208.42-26.00Q208.42-26.74 209.51-26.91L209.51-26.91Q211.46-27.23 216.19-27.23L216.19-27.23L217.05-27.23Q217.95-27.23 218.47-26.92Q218.98-26.62 218.98-25.61L218.98-25.61Q218.98-25.35 218.67-24.78Q218.36-24.20 218.36-23.63Q218.36-23.07 220.04-20.47Q221.72-17.87 221.95-17.87Z M247.85-7.99L247.85-7.99Q247.85-8.87 247.30-8.87L247.30-8.87L246.80-8.87Q246.31-8.77 246.05-8.77L246.05-8.77Q244.28-8.77 243.07-7.73Q241.86-6.70 241.86-5.39L241.86-5.39L241.86-4.94Q241.86-3.95 242.48-3.22Q243.11-2.50 244.00-2.50L244.00-2.50L244.63-2.50Q245.92-2.50 246.84-3.30Q247.75-4.10 247.75-4.86L247.75-4.86Q247.83-5.25 247.83-5.37L247.83-5.37L247.87-5.68L247.87-6.52L247.89-6.84L247.89-7.70Q247.85-7.89 247.85-7.99ZM255.78-1.80L255.78-1.80L255.78-1.50Q255.78-0.84 254.32-0.26Q252.85 0.31 250.84 0.31L250.84 0.31Q249.61 0.31 248.71-0.80L248.71-0.80Q248.22-1.43 247.95-1.43L247.95-1.43Q247.68-1.45 247.01-0.98L247.01-0.98Q244.79 0.55 242.21 0.55L242.21 0.55Q242.19 0.55 242.17 0.57L242.17 0.57Q239.63 0.57 238.11-0.74Q236.58-2.05 236.56-4.41L236.56-4.41Q236.56-9.49 244.38-10.80L244.38-10.80Q246.25-11.09 246.62-11.25L246.62-11.25Q247.75-11.72 247.75-13.34Q247.75-14.96 247.02-15.67Q246.29-16.39 245.31-16.39L245.31-16.39Q243.77-16.39 242.52-14.74Q241.27-13.09 239.61-13.09L239.61-13.09Q238.63-13.09 238.13-13.62Q237.64-14.16 237.64-14.73L237.64-14.73Q237.64-16.45 239.43-17.46L239.43-17.46Q242.42-19.14 245.76-19.14L245.76-19.14L246.78-19.14Q248.46-19.14 249.99-18.43Q251.52-17.71 252.36-16.25Q253.20-14.79 253.20-9.71Q253.20-4.63 253.53-3.86Q253.85-3.09 254.81-2.72Q255.78-2.36 255.78-1.80Z M261.91-18.81L261.91-18.81L267.83-18.81Q273.03-18.81 273.22-18.79L273.22-18.79Q274.32-18.67 274.32-17.89L274.32-17.89Q274.32-16.62 273.36-15.13Q272.40-13.63 268.63-8.51Q264.86-3.38 264.86-3.01Q264.86-2.64 266.78-2.64Q268.69-2.64 269.85-3.09Q271.02-3.54 272.15-4.74Q273.28-5.94 274.00-5.94L274.00-5.94Q274.84-5.94 274.84-4.92L274.84-4.92L274.84-4.43Q274.84-1.17 274.20-0.43L274.20-0.43Q273.81 0.02 272.40 0.02L272.40 0.02L260 0.02Q258.24 0.02 258.24-0.98L258.24-0.98Q258.24-2.11 259.30-3.73Q260.35-5.35 264.08-10.32Q267.81-15.29 267.81-15.80L267.81-15.80Q267.81-16.17 266.09-16.17Q264.38-16.17 263.32-15.76Q262.27-15.35 261.32-14.34Q260.37-13.32 259.55-13.32Q258.73-13.32 258.73-15.22Q258.73-17.13 259.06-18.01Q259.39-18.89 260.39-18.89L260.39-18.89L260.88-18.87Q261.88-18.81 261.91-18.81Z M279.94-24.82L279.94-25.33Q279.94-26.46 280.83-27.25Q281.72-28.03 282.75-28.03L282.75-28.03L283.38-28.03Q283.67-27.97 283.87-27.97L283.87-27.97Q284.80-27.97 285.53-27.13Q286.25-26.29 286.25-25.53L286.25-25.53L286.25-25.02Q286.21-24.82 286.21-24.73L286.21-24.73Q286.21-23.91 285.29-23.13Q284.38-22.34 283.26-22.34L283.26-22.34L282.66-22.34Q281.56-22.34 280.77-23.04Q279.98-23.73 279.98-24.63L279.98-24.63L279.94-24.82ZM283.65 0.08L283.65 0.08L281.80 0.08Q279.20 0.08 278.68-0.07Q278.16-0.21 278.16-0.91Q278.16-1.60 279.14-2.58Q280.12-3.55 280.37-4.54Q280.63-5.53 280.63-9.68Q280.63-13.83 280.41-14.57Q280.20-15.31 279.07-15.85Q277.95-16.39 277.95-17.14Q277.95-17.89 278.98-18.24L278.98-18.24Q281.33-19.02 284.16-19.02L284.16-19.02L284.45-19.02Q285.59-19.02 285.76-18.07L285.76-18.07Q285.86-17.52 285.86-11.51Q285.86-5.51 286.12-4.48Q286.39-3.46 287.48-2.30Q288.57-1.15 288.57-0.86L288.57-0.86L288.57-0.63Q288.57 0.08 283.65 0.08Z"/></g>
</svg>
</g></svg></svg>