<svg version="1.1" preserveAspectRatio="none" xmlns="http://www.w3.org/2000/svg" width="500" height="500" viewBox="0 0 500 500"><rect width="100%" height="100%" fill="#FFFFFF" fill-opacity="1"/><svg viewBox="-1.7583 136.7606 439.0676 94" width="333" height="71.2919832845785" x="83.5px" y="214.354px" xmlns="http://www.w3.org/2000/svg" xmlns:xlink="http://www.w3.org/1999/xlink" preserveAspectRatio="none"><defs></defs><style>.companyName {fill:#4D4D4D;fill-opacity:1;}.icon1 {fill:#FF834F;fill-opacity:1;}.icon2 {fill:#FF4949;fill-opacity:1;}.icon3 {fill:#FFAE78;fill-opacity:1;}.icon3-str {stroke:#FFAE78;stroke-opacity:1;}.shapeStroke-str {stroke:#313131;stroke-opacity:1;}</style><g opacity="1" transform="rotate(0 -1.7583 148.7606)">
<svg width="82.4289" height="70" x="-1.7583" y="148.7606" version="1.1" preserveAspectRatio="none" viewBox="2 3.999781370162964 19.329261779785156 16.414718627929688">
  <g transform="matrix(1 0 0 1 0 0)" class="icon1"><title>geo-4c</title><desc>Created with Sketch.</desc><g stroke-width="1" fill-rule="evenodd"><g><path d="M10.2175,9.2965 L12.4895,14.1675 L8.2085,13.2675 L5.9365,8.3965 L10.2175,9.2965 Z M18.3745,5.4925 L20.6465,10.3645 L16.3645,9.4645 L14.0935,4.5935 L18.3745,5.4925 Z M14.8895,19.8885 L5.1925,18.1405 L8.1475,13.7655 L12.8755,14.7595 C12.8935,14.7635 12.9105,14.7645 12.9275,14.7645 C12.9625,14.7645 12.9985,14.7575 13.0325,14.7415 C13.0345,14.7415 13.0345,14.7395 13.0355,14.7385 C13.0465,14.7335 13.0555,14.7235 13.0655,14.7165 C13.0785,14.7075 13.0865,14.6985 13.0975,14.6885 C13.1085,14.6765 13.1245,14.6695 13.1345,14.6555 L16.3045,9.9625 L20.6775,10.8815 L14.8895,19.8885 Z M21.3185,10.7805 C21.3205,10.7735 21.3275,10.7695 21.3285,10.7625 C21.3325,10.7445 21.3195,10.7295 21.3185,10.7115 C21.3185,10.6835 21.3205,10.6605 21.3125,10.6345 C21.3085,10.6255 21.3145,10.6155 21.3105,10.6065 L18.7745,5.1685 C18.7715,5.1615 18.7645,5.1615 18.7615,5.1555 C18.7455,5.1265 18.7185,5.1135 18.6925,5.0925 C18.6665,5.0725 18.6465,5.0495 18.6155,5.0395 C18.6085,5.0375 18.6065,5.0305 18.5995,5.0295 L13.7065,4.0005 C13.6885,3.9965 13.6735,4.0105 13.6565,4.0105 C13.6295,4.0105 13.6075,4.0095 13.5825,4.0175 C13.5715,4.0205 13.5605,4.0135 13.5495,4.0185 C13.5445,4.0215 13.5435,4.0285 13.5385,4.0315 C13.5175,4.0425 13.5075,4.0605 13.4905,4.0775 C13.4785,4.0895 13.4585,4.0905 13.4485,4.1055 L10.2785,8.7985 L5.5495,7.8045 C5.5315,7.8005 5.5175,7.8135 5.4995,7.8135 C5.4725,7.8135 5.4515,7.8125 5.4255,7.8205 C5.4145,7.8245 5.4035,7.8175 5.3935,7.8225 C5.3875,7.8255 5.3865,7.8325 5.3805,7.8355 C5.3605,7.8465 5.3505,7.8645 5.3335,7.8805 C5.3215,7.8925 5.3015,7.8935 5.2915,7.9085 L2.0275,12.7405 C2.0215,12.7495 2.0265,12.7615 2.0215,12.7715 C2.0065,12.8015 2.0055,12.8285 2.0025,12.8625 C2.0005,12.8955 1.9965,12.9235 2.0065,12.9545 C2.0105,12.9655 2.0035,12.9755 2.0085,12.9865 L4.5435,18.4245 C4.5475,18.4325 4.5565,18.4365 4.5615,18.4445 C4.5695,18.4585 4.5805,18.4665 4.5915,18.4785 C4.6015,18.4895 4.6095,18.5025 4.6215,18.5115 C4.6255,18.5155 4.6255,18.5225 4.6305,18.5255 C4.6315,18.5265 4.6335,18.5265 4.6345,18.5275 C4.6545,18.5395 4.6785,18.5415 4.7015,18.5485 C4.7115,18.5525 4.7155,18.5625 4.7265,18.5645 L14.9655,20.4105 C14.9795,20.4125 14.9945,20.4145 15.0095,20.4145 L15.0105,20.4145 C15.0105,20.4145 15.0105,20.4135 15.0115,20.4135 C15.0625,20.4135 15.1085,20.3935 15.1505,20.3635 C15.1635,20.3545 15.1715,20.3455 15.1825,20.3345 C15.1945,20.3225 15.2105,20.3145 15.2205,20.2995 L21.2945,10.8465 C21.3005,10.8385 21.2955,10.8275 21.2995,10.8185 C21.3065,10.8045 21.3135,10.7945 21.3185,10.7805 L21.3185,10.7805 Z"></path></g></g></g>
</svg>
</g><g opacity="1" transform="rotate(0 114.6706 163.7606)">
<svg width="322.6387" height="40" x="114.6706" y="163.7606" version="1.1" preserveAspectRatio="none" viewBox="3.32 -31.48 319.08 39.56">
  <g transform="matrix(1 0 0 1 0 0)" class="companyName"><path id="id-D6z1nYkh13" d="M22.60-28L29-28L29 0L23.68 0L9.72-17L9.72 0L3.32 0L3.32-28L8.68-28L22.60-11L22.60-28Z M43.88-21.84Q48.88-21.84 51.56-19.46Q54.24-17.08 54.24-12.28L54.24-12.28L54.24 0L48.40 0L48.40-2.68Q46.64 0.32 41.84 0.32L41.84 0.32Q39.36 0.32 37.54-0.52Q35.72-1.36 34.76-2.84Q33.80-4.32 33.80-6.20L33.80-6.20Q33.80-9.20 36.06-10.92Q38.32-12.64 43.04-12.64L43.04-12.64L48-12.64Q48-14.68 46.76-15.78Q45.52-16.88 43.04-16.88L43.04-16.88Q41.32-16.88 39.66-16.34Q38-15.80 36.84-14.88L36.84-14.88L34.60-19.24Q36.36-20.48 38.82-21.16Q41.28-21.84 43.88-21.84L43.88-21.84ZM43.40-3.88Q45-3.88 46.24-4.62Q47.48-5.36 48-6.80L48-6.80L48-9L43.72-9Q39.88-9 39.88-6.48L39.88-6.48Q39.88-5.28 40.82-4.58Q41.76-3.88 43.40-3.88L43.40-3.88Z M72.96-21.84Q76.96-21.84 79.42-19.44Q81.88-17.04 81.88-12.32L81.88-12.32L81.88 0L75.64 0L75.64-11.36Q75.64-13.92 74.52-15.18Q73.40-16.44 71.28-16.44L71.28-16.44Q68.92-16.44 67.52-14.98Q66.12-13.52 66.12-10.64L66.12-10.64L66.12 0L59.88 0L59.88-21.52L65.84-21.52L65.84-19Q67.08-20.36 68.92-21.10Q70.76-21.84 72.96-21.84L72.96-21.84Z M104.04-21.52L109.96-21.52L109.96-3.60Q109.96 2.32 106.88 5.20Q103.80 8.08 97.88 8.08L97.88 8.08Q94.76 8.08 91.96 7.32Q89.16 6.56 87.32 5.12L87.32 5.12L89.80 0.64Q91.16 1.76 93.24 2.42Q95.32 3.08 97.40 3.08L97.40 3.08Q100.64 3.08 102.18 1.62Q103.72 0.16 103.72-2.80L103.72-2.80L103.72-3.72Q101.28-1.04 96.92-1.04L96.92-1.04Q93.96-1.04 91.50-2.34Q89.04-3.64 87.60-6Q86.16-8.36 86.16-11.44L86.16-11.44Q86.16-14.52 87.60-16.88Q89.04-19.24 91.50-20.54Q93.96-21.84 96.92-21.84L96.92-21.84Q101.60-21.84 104.04-18.76L104.04-18.76L104.04-21.52ZM98.16-6.16Q100.64-6.16 102.22-7.62Q103.80-9.08 103.80-11.44L103.80-11.44Q103.80-13.80 102.22-15.26Q100.64-16.72 98.16-16.72L98.16-16.72Q95.68-16.72 94.08-15.26Q92.48-13.80 92.48-11.44L92.48-11.44Q92.48-9.08 94.08-7.62Q95.68-6.16 98.16-6.16L98.16-6.16Z M124.44-21.84Q129.44-21.84 132.12-19.46Q134.80-17.08 134.80-12.28L134.80-12.28L134.80 0L128.96 0L128.96-2.68Q127.20 0.32 122.40 0.32L122.40 0.32Q119.92 0.32 118.10-0.52Q116.28-1.36 115.32-2.84Q114.36-4.32 114.36-6.20L114.36-6.20Q114.36-9.20 116.62-10.92Q118.88-12.64 123.60-12.64L123.60-12.64L128.56-12.64Q128.56-14.68 127.32-15.78Q126.08-16.88 123.60-16.88L123.60-16.88Q121.88-16.88 120.22-16.34Q118.56-15.80 117.40-14.88L117.40-14.88L115.16-19.24Q116.92-20.48 119.38-21.16Q121.84-21.84 124.44-21.84L124.44-21.84ZM123.96-3.88Q125.56-3.88 126.80-4.62Q128.04-5.36 128.56-6.80L128.56-6.80L128.56-9L124.28-9Q120.44-9 120.44-6.48L120.44-6.48Q120.44-5.28 121.38-4.58Q122.32-3.88 123.96-3.88L123.96-3.88Z M168-21.84Q172.04-21.84 174.42-19.46Q176.80-17.08 176.80-12.32L176.80-12.32L176.80 0L170.56 0L170.56-11.36Q170.56-13.92 169.50-15.18Q168.44-16.44 166.48-16.44L166.48-16.44Q164.28-16.44 163-15.02Q161.72-13.60 161.72-10.80L161.72-10.80L161.72 0L155.48 0L155.48-11.36Q155.48-16.44 151.40-16.44L151.40-16.44Q149.24-16.44 147.96-15.02Q146.68-13.60 146.68-10.80L146.68-10.80L146.68 0L140.44 0L140.44-21.52L146.40-21.52L146.40-19.04Q147.60-20.40 149.34-21.12Q151.08-21.84 153.16-21.84L153.16-21.84Q155.44-21.84 157.28-20.94Q159.12-20.04 160.24-18.32L160.24-18.32Q161.56-20 163.58-20.92Q165.60-21.84 168-21.84L168-21.84Z M189.64 0.32Q186.96 0.32 184.40-0.34Q181.84-1 180.32-2L180.32-2L182.40-6.48Q183.84-5.56 185.88-4.98Q187.92-4.40 189.88-4.40L189.88-4.40Q193.84-4.40 193.84-6.36L193.84-6.36Q193.84-7.28 192.76-7.68Q191.68-8.08 189.44-8.36L189.44-8.36Q186.80-8.76 185.08-9.28Q183.36-9.80 182.10-11.12Q180.84-12.44 180.84-14.88L180.84-14.88Q180.84-16.92 182.02-18.50Q183.20-20.08 185.46-20.96Q187.72-21.84 190.80-21.84L190.80-21.84Q193.08-21.84 195.34-21.34Q197.60-20.84 199.08-19.96L199.08-19.96L197-15.52Q194.16-17.12 190.80-17.12L190.80-17.12Q188.80-17.12 187.80-16.56Q186.80-16 186.80-15.12L186.80-15.12Q186.80-14.12 187.88-13.72Q188.96-13.32 191.32-12.96L191.32-12.96Q193.96-12.52 195.64-12.02Q197.32-11.52 198.56-10.20Q199.80-8.88 199.80-6.52L199.80-6.52Q199.80-4.52 198.60-2.96Q197.40-1.40 195.10-0.54Q192.80 0.32 189.64 0.32L189.64 0.32Z M213.88 0.32Q210.48 0.32 207.78-1.10Q205.08-2.52 203.56-5.04Q202.04-7.56 202.04-10.76L202.04-10.76Q202.04-13.96 203.56-16.48Q205.08-19 207.78-20.42Q210.48-21.84 213.88-21.84L213.88-21.84Q217.28-21.84 219.96-20.42Q222.64-19 224.16-16.48Q225.68-13.96 225.68-10.76L225.68-10.76Q225.68-7.56 224.16-5.04Q222.64-2.52 219.96-1.10Q217.28 0.32 213.88 0.32L213.88 0.32ZM213.88-4.80Q216.28-4.80 217.82-6.42Q219.36-8.04 219.36-10.76L219.36-10.76Q219.36-13.48 217.82-15.10Q216.28-16.72 213.88-16.72L213.88-16.72Q211.48-16.72 209.92-15.10Q208.36-13.48 208.36-10.76L208.36-10.76Q208.36-8.04 209.92-6.42Q211.48-4.80 213.88-4.80L213.88-4.80Z M266.72 0L259.24 0L252.48-9.72L245.84 0L238.40 0L248.76-14.24L238.92-28L246.28-28L252.72-18.92L259.04-28L266.04-28L256.28-14.48L266.72 0Z M277.68-21.84Q282.68-21.84 285.36-19.46Q288.04-17.08 288.04-12.28L288.04-12.28L288.04 0L282.20 0L282.20-2.68Q280.44 0.32 275.64 0.32L275.64 0.32Q273.16 0.32 271.34-0.52Q269.52-1.36 268.56-2.84Q267.60-4.32 267.60-6.20L267.60-6.20Q267.60-9.20 269.86-10.92Q272.12-12.64 276.84-12.64L276.84-12.64L281.80-12.64Q281.80-14.68 280.56-15.78Q279.32-16.88 276.84-16.88L276.84-16.88Q275.12-16.88 273.46-16.34Q271.80-15.80 270.64-14.88L270.64-14.88L268.40-19.24Q270.16-20.48 272.62-21.16Q275.08-21.84 277.68-21.84L277.68-21.84ZM277.20-3.88Q278.80-3.88 280.04-4.62Q281.28-5.36 281.80-6.80L281.80-6.80L281.80-9L277.52-9Q273.68-9 273.68-6.48L273.68-6.48Q273.68-5.28 274.62-4.58Q275.56-3.88 277.20-3.88L277.20-3.88Z M300.08-4.80L311.40-4.80L311.40 0L292.20 0L292.20-3.76L303.16-16.72L292.48-16.72L292.48-21.52L311.04-21.52L311.04-17.76L300.08-4.80Z M315.40 0L315.40-21.52L321.64-21.52L321.64 0L315.40 0ZM318.52-24.52Q316.80-24.52 315.72-25.52Q314.64-26.52 314.64-28L314.64-28Q314.64-29.48 315.72-30.48Q316.80-31.48 318.52-31.48L318.52-31.48Q320.24-31.48 321.32-30.52Q322.40-29.56 322.40-28.12L322.40-28.12Q322.40-26.56 321.32-25.54Q320.24-24.52 318.52-24.52L318.52-24.52Z"/></g>
</svg>
</g><g opacity="1" transform="rotate(0 94.6706 136.7606)">
<svg width="4" height="94" x="94.6706" y="136.7606" version="1.1" preserveAspectRatio="none" viewBox="0 0 4 94">
  <defs><rect x="0" y="0" width="4" height="94" rx="0px" ry="0px" id="id-tBXipXk0b1708598511467"></rect></defs><use class="companyName shapeStroke-str" style="stroke-width:0;" xlink:href="#id-tBXipXk0b1708598511467"></use>
</svg>
</g></svg></svg>