<svg version="1.1" preserveAspectRatio="none" xmlns="http://www.w3.org/2000/svg" width="500" height="500" viewBox="0 0 500 500"><rect width="100%" height="100%" fill="#FFFFFF" fill-opacity="1"/><svg viewBox="64.8233 141.6669 481.6703 100" width="333" height="69.13442659844296" x="83.5px" y="215.4328px" xmlns="http://www.w3.org/2000/svg" xmlns:xlink="http://www.w3.org/1999/xlink" preserveAspectRatio="none"><defs></defs><style>.companyName {fill:#182145;fill-opacity:1;}.icon1 {fill:#182145;fill-opacity:1;}.icon2 {fill:#E35B34;fill-opacity:1;}.icon3 {fill:#E3D454;fill-opacity:1;}.icon3-str {stroke:#E3D454;stroke-opacity:1;}</style><g opacity="1" transform="rotate(0 64.8233 141.6669)">
<svg width="87.5" height="100" x="64.8233" y="141.6669" version="1.1" preserveAspectRatio="none" viewBox="30 20 140 160">
  <g transform="matrix(1 0 0 1 0 0)"><g><path d="M31.1 140.3L100 20.2l68.9 120.1 1.1-82.1-70-38.1V20l-.1.1V20v.1L30 58.2l1.1 82.1z" data-color="1" class="icon1"></path><path d="M101.8 180l67.3-39.3h-138l70.7 39.3z" data-color="1" class="icon1"></path></g></g>
</svg>
</g><g opacity="1" transform="rotate(0 182.3233 141.6669)">
<svg width="364.1703" height="100" x="182.3233" y="141.6669" version="1.1" preserveAspectRatio="none" viewBox="3.32 -28.48 249.36 68.48">
  <g transform="matrix(1 0 0 1 0 0)" class="companyName"><path id="id-D6z1nYkh12" d="M22.60-28L29-28L29 0L23.68 0L9.72-17L9.72 0L3.32 0L3.32-28L8.68-28L22.60-11L22.60-28Z M56.56 0L54.08-6L41.08-6L38.60 0L31.96 0L44.44-28L50.84-28L63.36 0L56.56 0ZM43.16-10.92L52.04-10.92L47.60-21.64L43.16-10.92Z M85.56-28L91.96-28L91.96 0L86.64 0L72.68-17L72.68 0L66.28 0L66.28-28L71.64-28L85.56-11L85.56-28Z M117.52-6.24L117.52-14.44L123.44-14.44L123.44-3.08Q121.16-1.36 118.16-0.44Q115.16 0.48 112.12 0.48L112.12 0.48Q107.76 0.48 104.28-1.38Q100.80-3.24 98.82-6.54Q96.84-9.84 96.84-14L96.84-14Q96.84-18.16 98.82-21.46Q100.80-24.76 104.32-26.62Q107.84-28.48 112.24-28.48L112.24-28.48Q115.92-28.48 118.92-27.24Q121.92-26 123.96-23.64L123.96-23.64L119.80-19.80Q116.80-22.96 112.56-22.96L112.56-22.96Q109.88-22.96 107.80-21.84Q105.72-20.72 104.56-18.68Q103.40-16.64 103.40-14L103.40-14Q103.40-11.40 104.56-9.36Q105.72-7.32 107.78-6.18Q109.84-5.04 112.48-5.04L112.48-5.04Q115.28-5.04 117.52-6.24L117.52-6.24Z M150.36 0L147.88-6L134.88-6L132.40 0L125.76 0L138.24-28L144.64-28L157.16 0L150.36 0ZM136.96-10.92L145.84-10.92L141.40-21.64L136.96-10.92Z M191.64 0L185.56 0L185.52-16.80L177.28-2.96L174.36-2.96L166.16-16.44L166.16 0L160.08 0L160.08-28L165.44-28L175.92-10.60L186.24-28L191.56-28L191.64 0Z M207.48 0.48Q204.16 0.48 201.06-0.42Q197.96-1.32 196.08-2.76L196.08-2.76L198.28-7.64Q200.08-6.32 202.56-5.52Q205.04-4.72 207.52-4.72L207.52-4.72Q210.28-4.72 211.60-5.54Q212.92-6.36 212.92-7.72L212.92-7.72Q212.92-8.72 212.14-9.38Q211.36-10.04 210.14-10.44Q208.92-10.84 206.84-11.32L206.84-11.32Q203.64-12.08 201.60-12.84Q199.56-13.60 198.10-15.28Q196.64-16.96 196.64-19.76L196.64-19.76Q196.64-22.20 197.96-24.18Q199.28-26.16 201.94-27.32Q204.60-28.48 208.44-28.48L208.44-28.48Q211.12-28.48 213.68-27.84Q216.24-27.20 218.16-26L218.16-26L216.16-21.08Q212.28-23.28 208.40-23.28L208.40-23.28Q205.68-23.28 204.38-22.40Q203.08-21.52 203.08-20.08L203.08-20.08Q203.08-18.64 204.58-17.94Q206.08-17.24 209.16-16.56L209.16-16.56Q212.36-15.80 214.40-15.04Q216.44-14.28 217.90-12.64Q219.36-11 219.36-8.20L219.36-8.20Q219.36-5.80 218.02-3.82Q216.68-1.84 214.00-0.68Q211.32 0.48 207.48 0.48L207.48 0.48Z M237.36 0.48Q233 0.48 229.50-1.40Q226-3.28 224.02-6.58Q222.04-9.88 222.04-14L222.04-14Q222.04-18.12 224.02-21.42Q226-24.72 229.50-26.60Q233-28.48 237.36-28.48L237.36-28.48Q241.72-28.48 245.20-26.60Q248.68-24.72 250.68-21.42Q252.68-18.12 252.68-14L252.68-14Q252.68-9.88 250.68-6.58Q248.68-3.28 245.20-1.40Q241.72 0.48 237.36 0.48L237.36 0.48ZM237.36-5.04Q239.84-5.04 241.84-6.18Q243.84-7.32 244.98-9.36Q246.12-11.40 246.12-14L246.12-14Q246.12-16.60 244.98-18.64Q243.84-20.68 241.84-21.82Q239.84-22.96 237.36-22.96L237.36-22.96Q234.88-22.96 232.88-21.82Q230.88-20.68 229.74-18.64Q228.60-16.60 228.60-14L228.60-14Q228.60-11.40 229.74-9.36Q230.88-7.32 232.88-6.18Q234.88-5.04 237.36-5.04L237.36-5.04Z M31.64 40L24.16 40L17.40 30.28L10.76 40L3.32 40L13.68 25.76L3.84 12L11.20 12L17.64 21.08L23.96 12L30.96 12L21.20 25.52L31.64 40Z M54.56 40L52.08 34L39.08 34L36.60 40L29.96 40L42.44 12L48.84 12L61.36 40L54.56 40ZM41.16 29.08L50.04 29.08L45.60 18.36L41.16 29.08Z M71.04 34.72L86.96 34.72L86.96 40L62.48 40L62.48 35.80L77.84 17.28L62.80 17.28L62.80 12L86.36 12L86.36 16.20L71.04 34.72Z M91.12 40L91.12 12L97.60 12L97.60 40L91.12 40Z"/></g>
</svg>
</g></svg></svg>